<?xml version="1.0" standalone="no"?>
<!DOCTYPE svg PUBLIC "-//W3C//DTD SVG 20010904//EN"
 "http://www.w3.org/TR/2001/REC-SVG-20010904/DTD/svg10.dtd">
<svg version="1.0" xmlns="http://www.w3.org/2000/svg"
 width="615.000000pt" height="580.000000pt" viewBox="0 0 615.000000 580.000000"
 preserveAspectRatio="xMidYMid meet">

<g transform="translate(0.000000,580.000000) scale(0.100000,-0.100000)"
fill="#0be44c7" stroke="none">
<path d="M5 2905 c0 -1524 1 -2145 2 -1382 2 764 2 2010 0 2770 -1 760 -2 136
-2 -1388z"/>
<path d="M6145 2905 c0 -1524 1 -2145 2 -1382 2 764 2 2010 0 2770 -1 760 -2
136 -2 -1388z"/>
<path d="M2959 5465 c-26 -13 -58 -38 -72 -55 -14 -16 -146 -268 -293 -558
-147 -290 -296 -583 -330 -652 -59 -114 -64 -130 -64 -187 0 -103 45 -177 135
-226 40 -22 42 -22 730 -22 l690 0 47 23 c122 60 171 200 115 328 -48 111
-631 1251 -656 1284 -68 87 -204 116 -302 65z"/>
<path d="M1083 3455 c-356 -180 -663 -338 -681 -352 -60 -45 -86 -97 -90 -179
-5 -86 17 -144 72 -192 19 -16 247 -137 507 -269 894 -453 816 -417 889 -421
56 -3 73 1 120 25 67 34 114 94 129 163 14 67 15 1275 1 1351 -12 66 -51 124
-110 164 -37 25 -57 30 -117 33 l-71 4 -649 -327z m750 174 c12 -6 30 -21 39
-33 16 -19 18 -71 18 -684 0 -728 3 -696 -61 -722 -16 -7 -41 -10 -57 -7 -15
3 -310 150 -657 326 -656 333 -665 338 -665 399 0 65 6 69 497 318 258 130
546 277 642 325 175 89 204 99 244 78z"/>
<path d="M4251 3757 c-61 -31 -107 -86 -126 -150 -14 -48 -15 -138 -13 -718 3
-649 3 -665 24 -709 23 -50 80 -105 130 -126 19 -8 61 -14 95 -14 61 0 68 4
712 327 705 355 728 369 755 459 29 99 8 189 -58 254 -39 38 -154 99 -697 373
l-651 327 -63 0 c-46 0 -76 -6 -108 -23z m764 -438 c348 -176 643 -332 656
-345 32 -34 32 -94 0 -127 -12 -14 -308 -170 -658 -347 -700 -355 -672 -344
-727 -279 l-26 31 0 657 c0 657 0 658 21 685 23 29 51 44 82 45 11 1 304 -143
652 -320z"/>
<path d="M2302 3483 c3 -23 11 -28 68 -45 36 -10 71 -25 78 -35 9 -13 12 -130
12 -504 0 -553 9 -500 -94 -535 -52 -18 -61 -24 -64 -47 l-3 -27 210 0 211 0
0 28 c0 26 -5 30 -57 46 -101 32 -93 -14 -93 505 l1 456 82 -230 c46 -126 130
-359 188 -517 l104 -288 45 0 46 0 46 103 c36 78 257 673 336 902 8 22 11
-100 11 -432 l1 -463 -22 -14 c-13 -7 -47 -20 -75 -27 -48 -12 -53 -15 -53
-41 l0 -28 281 0 280 0 -3 26 c-3 23 -11 29 -68 46 -36 11 -71 27 -77 36 -19
23 -19 981 0 1005 6 10 41 25 77 35 58 17 65 22 68 46 l3 26 -228 -2 -228 -3
-155 -427 c-134 -372 -170 -460 -170 -418 0 5 -68 198 -152 430 l-151 420
-229 0 -229 0 3 -27z"/>
<path d="M2393 2030 c-60 -12 -96 -34 -137 -81 -47 -55 -59 -96 -53 -177 4
-65 16 -91 330 -706 179 -352 337 -655 352 -674 38 -47 116 -82 186 -82 69 0
150 39 190 90 26 33 609 1175 656 1284 56 129 2 277 -122 333 -37 17 -88 18
-700 20 -363 0 -679 -3 -702 -7z"/>
</g>
</svg>
